<?xml version="1.0" encoding="utf-8"?>
<svg version="1.1" xmlns:xlink="http://www.w3.org/1999/xlink" width="213px" height="37px" xmlns="http://www.w3.org/2000/svg">
  <g transform="matrix(1 0 0 1 -471 -542 )">
    <path d="M 471.5 562.652950310559  C 471.5 562.652950310559  471.5 547  471.5 547  C 471.5 544.514718625761  473.514718625761 542.5  476 542.5  C 476 542.5  679 542.5  679 542.5  C 681.485281374239 542.5  683.5 544.514718625761  683.5 547  C 683.5 547  683.5 562.652950310559  683.5 562.652950310559  C 683.5 565.138231684798  681.485281374239 567.152950310559  679 567.152950310559  C 679 567.152950310559  591.783321006981 567.152950310559  591.783321006981 567.152950310559  C 591.783321006981 567.152950310559  578.02708586914 577.445587306177  578.02708586914 577.445587306177  C 578.02708586914 577.445587306177  566.486620149476 567.152950310559  566.486620149476 567.152950310559  C 566.486620149476 567.152950310559  476 567.152950310559  476 567.152950310559  C 473.514718625761 567.152950310559  471.5 565.138231684798  471.5 562.652950310559  Z " fill-rule="nonzero" fill="#555555" stroke="none" />
    <path d="M 471 562.652950310559  C 471 562.652950310559  471 547  471 547  C 471 544.238576250846  473.238576250846 542  476 542  C 476 542  679 542  679 542  C 681.761423749154 542  684 544.238576250846  684 547  C 684 547  684 562.652950310559  684 562.652950310559  C 684 565.414374059713  681.761423749154 567.652950310559  679 567.652950310559  C 679 567.652950310559  591.94967032967 567.652950310559  591.94967032967 567.652950310559  C 591.94967032967 567.652950310559  577.999340659341 578.090811965812  577.999340659341 578.090811965812  C 577.999340659341 578.090811965812  566.296043956044 567.652950310559  566.296043956044 567.652950310559  C 566.296043956044 567.652950310559  476 567.652950310559  476 567.652950310559  C 473.238576250846 567.652950310559  471 565.414374059713  471 562.652950310559  Z M 472 562.652950310559  C 472 564.862089309882  473.790861000677 566.652950310559  476 566.652950310559  C 476 566.652950310559  566.677196342908 566.652950310559  566.677196342908 566.652950310559  C 566.677196342908 566.652950310559  578.05483107894 576.800362646543  578.05483107894 576.800362646543  C 578.05483107894 576.800362646543  591.616971684291 566.652950310559  591.616971684291 566.652950310559  C 591.616971684291 566.652950310559  679 566.652950310559  679 566.652950310559  C 681.209138999323 566.652950310559  683 564.862089309882  683 562.652950310559  C 683 562.652950310559  683 547  683 547  C 683 544.790861000677  681.209138999323 543  679 543  C 679 543  476 543  476 543  C 473.790861000677 543  472 544.790861000677  472 547  C 472 547  472 562.652950310559  472 562.652950310559  Z " fill-rule="nonzero" fill="#d7d7d7" stroke="none" />
  </g>
</svg>