<?xml version="1.0" encoding="utf-8"?>
<svg version="1.1" xmlns:xlink="http://www.w3.org/1999/xlink" width="234px" height="47px" xmlns="http://www.w3.org/2000/svg">
  <g transform="matrix(1 0 0 1 -415 -357 )">
    <path d="M 415.5 384.586180124224  C 415.5 384.586180124224  415.5 362  415.5 362  C 415.5 359.514718625761  417.514718625761 357.5  420 357.5  C 420 357.5  644 357.5  644 357.5  C 646.485281374239 357.5  648.5 359.514718625761  648.5 362  C 648.5 362  648.5 384.586180124224  648.5 384.586180124224  C 648.5 387.071461498462  646.485281374239 389.086180124224  644 389.086180124224  C 644 389.086180124224  547.688017305386 389.086180124224  547.688017305386 389.086180124224  C 547.688017305386 389.086180124224  532.578676641454 402.157891756496  532.578676641454 402.157891756496  C 532.578676641454 402.157891756496  519.903055279094 389.086180124224  519.903055279094 389.086180124224  C 519.903055279094 389.086180124224  420 389.086180124224  420 389.086180124224  C 417.514718625761 389.086180124224  415.5 387.071461498462  415.5 384.586180124224  Z " fill-rule="nonzero" fill="#ffffff" stroke="none" />
    <path d="M 415 384.586180124224  C 415 384.586180124224  415 362  415 362  C 415 359.238576250846  417.238576250846 357  420 357  C 420 357  644 357  644 357  C 646.761423749154 357  649 359.238576250846  649 362  C 649 362  649 384.586180124224  649 384.586180124224  C 649 387.347603873378  646.761423749154 389.586180124224  644 389.586180124224  C 644 389.586180124224  547.874285714286 389.586180124224  547.874285714286 389.586180124224  C 547.874285714286 389.586180124224  532.548571428571 402.845085470085  532.548571428571 402.845085470085  C 532.548571428571 402.845085470085  519.691428571429 389.586180124224  519.691428571429 389.586180124224  C 519.691428571429 389.586180124224  420 389.586180124224  420 389.586180124224  C 417.238576250846 389.586180124224  415 387.347603873378  415 384.586180124224  Z M 416 384.586180124224  C 416 386.795319123547  417.790861000677 388.586180124224  420 388.586180124224  C 420 388.586180124224  520.11468198676 388.586180124224  520.11468198676 388.586180124224  C 520.11468198676 388.586180124224  532.608781854336 401.470698042907  532.608781854336 401.470698042907  C 532.608781854336 401.470698042907  547.501748896486 388.586180124224  547.501748896486 388.586180124224  C 547.501748896486 388.586180124224  644 388.586180124224  644 388.586180124224  C 646.209138999323 388.586180124224  648 386.795319123547  648 384.586180124224  C 648 384.586180124224  648 362  648 362  C 648 359.790861000677  646.209138999323 358  644 358  C 644 358  420 358  420 358  C 417.790861000677 358  416 359.790861000677  416 362  C 416 362  416 384.586180124224  416 384.586180124224  Z " fill-rule="nonzero" fill="#d7d7d7" stroke="none" />
  </g>
</svg>